<svg width="146" height="72" fill="none" xmlns="http://www.w3.org/2000/svg"><g clip-path="url(#a)"><g filter="url(#b)"><circle cx="36.656" cy="32.656" r="28.656" fill="#FFE4BC"/></g><path fill-rule="evenodd" clip-rule="evenodd" d="m37.087 13.214-1.94-1.097-1.922 1.132.396-2.274L32 9.408l2.185-.308.92-2.1.955 2.083 2.189.269-1.595 1.595.433 2.267ZM37.087 57.214l-1.94-1.097-1.922 1.132.396-2.274L32 53.408l2.185-.308.92-2.1.955 2.083 2.189.269-1.595 1.595.433 2.267ZM61.087 36.214l-1.94-1.097-1.922 1.132.396-2.274L56 32.408l2.185-.308.92-2.1.955 2.083 2.189.269-1.595 1.595.433 2.267ZM15.088 36.214l-1.94-1.097-1.923 1.132.396-2.274L10 32.408l2.185-.308.92-2.1.955 2.083 2.189.269-1.595 1.595.434 2.267ZM19.087 47.214l-1.94-1.097-1.922 1.132.396-2.274L14 43.408l2.185-.308.92-2.1.955 2.083 2.189.269-1.595 1.595.433 2.267ZM26.087 54.214l-1.94-1.097-1.922 1.132.396-2.274L21 50.408l2.185-.308.92-2.1.955 2.083 2.189.269-1.595 1.595.433 2.267ZM49.087 17.214l-1.94-1.097-1.922 1.132.396-2.274L44 13.408l2.185-.308.92-2.1.955 2.083 2.189.269-1.595 1.595.433 2.267ZM57.087 25.214l-1.94-1.097-1.922 1.132.396-2.274L52 21.408l2.185-.308.92-2.1.955 2.083 2.189.269-1.595 1.595.433 2.267ZM57.087 47.214l-1.94-1.097-1.922 1.132.396-2.274L52 43.408l2.185-.308.92-2.1.955 2.083 2.189.269-1.595 1.595.433 2.267ZM49.087 54.214l-1.94-1.097-1.922 1.132.396-2.274L44 50.408l2.185-.308.92-2.1.955 2.083 2.189.269-1.595 1.595.433 2.267ZM19.087 25.214l-1.94-1.097-1.922 1.132.396-2.274L14 21.408l2.185-.308.92-2.1.955 2.083 2.189.269-1.595 1.595.433 2.267ZM26.087 17.214l-1.94-1.097-1.922 1.132.396-2.274L21 13.408l2.185-.308.92-2.1.955 2.083 2.189.269-1.595 1.595.433 2.267Z" fill="#FFAE33"/><path d="M26.812 36.138c.833 0 1.375-.36 1.628-.841a2.491 2.491 0 0 0-.054.535V36h.917v-2.85h-2.369v.848h1.452v.038c0 .764-.619 1.253-1.413 1.253-.979 0-1.651-.748-1.651-1.964 0-1.215.688-1.963 1.674-1.963.71 0 1.184.412 1.253.947h1.031c-.1-1.04-.963-1.796-2.3-1.796-1.612 0-2.69 1.162-2.69 2.812 0 1.712 1.01 2.813 2.522 2.813ZM32.14 36c1.841 0 2.812-1.054 2.812-2.667 0-1.742-1.032-2.682-2.835-2.682h-1.895V36h1.918Zm-.917-4.5h.84c1.23 0 1.865.68 1.865 1.833 0 1.238-.733 1.819-1.857 1.819h-.848v-3.653ZM36.78 36v-2.14h1.245c1.078 0 1.957-.443 1.957-1.604 0-1.131-.84-1.605-1.957-1.605H35.78V36h1Zm0-4.5h1.245c.658 0 .925.29.925.756s-.283.756-.925.756H36.78V31.5ZM41.65 36v-2.17h1.123c.65 0 .88.23.88.863V36h1.008v-1.398c0-.688-.329-1.131-.94-1.238.512-.153 1.024-.573 1.024-1.307 0-.932-.726-1.406-1.727-1.406H40.65V36h1.001Zm0-4.5h1.177c.588 0 .886.259.886.74 0 .482-.298.734-.886.734h-1.177v-1.475Z" fill="#12100C"/></g><g filter="url(#c)"><circle cx="110.656" cy="33.656" r="28.656" fill="#FFE4BC"/></g><path d="m104.51 30.18-2.201-5.35h-1.146l-2.201 5.35h1.07l.542-1.46h2.277l.535 1.46h1.124Zm-3.011-3.974c.084-.214.153-.397.221-.619.062.222.123.398.207.62l.611 1.665h-1.651l.612-1.666Zm3.491-1.375v5.349h1.001v-5.35h-1.001Zm4.41 5.486c1.437 0 2.331-.833 2.461-2.07h-1.001c-.107.71-.635 1.222-1.429 1.222-.933 0-1.605-.757-1.605-2.002 0-1.2.68-1.926 1.628-1.926.787 0 1.245.474 1.344 1.17h1.04c-.138-1.269-1.078-2.018-2.384-2.018-1.513 0-2.66 1.055-2.66 2.774 0 1.819 1.017 2.85 2.606 2.85Zm4.184-.137v-2.14h1.246c1.077 0 1.956-.443 1.956-1.605 0-1.13-.841-1.604-1.956-1.604h-2.247v5.349h1.001Zm0-4.501h1.246c.657 0 .924.29.924.756s-.282.757-.924.757h-1.246v-1.513Zm8.359 4.5-2.201-5.348h-1.146l-2.201 5.349h1.07l.542-1.46h2.278l.534 1.46h1.124Zm-3.011-3.973c.084-.214.153-.397.222-.619.061.222.122.398.206.62l.611 1.665h-1.65l.611-1.666ZM104.56 42.761c1.375 0 2.124-.726 2.124-1.727 0-.894-.657-1.368-1.49-1.528l-.902-.176c-.542-.107-.901-.252-.901-.665 0-.435.443-.68 1.024-.68.794 0 1.146.42 1.169.91h1.039c-.061-1.04-.802-1.758-2.147-1.758-1.208 0-2.086.665-2.086 1.612 0 .856.657 1.353 1.497 1.513l.91.176c.588.107.879.336.879.741 0 .52-.474.734-1.07.734-.711 0-1.315-.382-1.368-1.123h-1.039c.084 1.192.924 1.971 2.361 1.971Zm5.29 0c1.498 0 2.644-1.024 2.644-2.812 0-1.696-1.146-2.812-2.644-2.812-1.498 0-2.621 1.093-2.621 2.812 0 1.796 1.123 2.812 2.621 2.812Zm0-.848c-.948 0-1.59-.718-1.59-1.964 0-1.215.635-1.964 1.59-1.964.955 0 1.612.764 1.612 1.964 0 1.26-.665 1.964-1.612 1.964Zm5.759.848c1.437 0 2.331-.833 2.46-2.07h-1.001c-.107.71-.634 1.222-1.429 1.222-.932 0-1.604-.757-1.604-2.002 0-1.2.68-1.926 1.627-1.926.787 0 1.246.474 1.345 1.17h1.04c-.138-1.27-1.078-2.018-2.385-2.018-1.513 0-2.659 1.054-2.659 2.774 0 1.819 1.016 2.85 2.606 2.85Z" fill="#12100C"/><path stroke="#FFAE33" stroke-width=".637" d="M94 32.861h33.113"/><defs><filter id="b" x="1.632" y=".179" width="70.047" height="70.047" filterUnits="userSpaceOnUse" color-interpolation-filters="sRGB"><feFlood flood-opacity="0" result="BackgroundImageFix"/><feColorMatrix in="SourceAlpha" values="0 0 0 0 0 0 0 0 0 0 0 0 0 0 0 0 0 0 127 0" result="hardAlpha"/><feOffset dy="2.547"/><feGaussianBlur stdDeviation="3.184"/><feComposite in2="hardAlpha" operator="out"/><feColorMatrix values="0 0 0 0 0 0 0 0 0 0 0 0 0 0 0 0 0 0 0.25 0"/><feBlend in2="BackgroundImageFix" result="effect1_dropShadow"/><feBlend in="SourceGraphic" in2="effect1_dropShadow" result="shape"/></filter><filter id="c" x="75.632" y="1.179" width="70.047" height="70.047" filterUnits="userSpaceOnUse" color-interpolation-filters="sRGB"><feFlood flood-opacity="0" result="BackgroundImageFix"/><feColorMatrix in="SourceAlpha" values="0 0 0 0 0 0 0 0 0 0 0 0 0 0 0 0 0 0 127 0" result="hardAlpha"/><feOffset dy="2.547"/><feGaussianBlur stdDeviation="3.184"/><feComposite in2="hardAlpha" operator="out"/><feColorMatrix values="0 0 0 0 0 0 0 0 0 0 0 0 0 0 0 0 0 0 0.25 0"/><feBlend in2="BackgroundImageFix" result="effect1_dropShadow"/><feBlend in="SourceGraphic" in2="effect1_dropShadow" result="shape"/></filter><clipPath id="a"><path fill="#fff" d="M0 0h70.047v70.047H0z"/></clipPath></defs></svg>